<svg xmlns="http://www.w3.org/2000/svg" viewBox="0 0 500 500"><g id="freepik--screen-2--inject-27"><rect x="175.29" y="27.66" width="180.54" height="382.97" rx="19.96" style="fill:#fafafa"></rect><path d="M335.87,410.63l.71-.05a14.6,14.6,0,0,0,2.1-.19,19.32,19.32,0,0,0,7.69-2.83,19.8,19.8,0,0,0,8.23-10.27,14.56,14.56,0,0,0,.57-1.94,15.29,15.29,0,0,0,.38-2.06,32,32,0,0,0,.19-4.43c0-3.06,0-6.33,0-9.78,0-27.65-.05-67.66-.09-117.09s0-108.3-.05-173.66q0-12.26,0-24.81V50.9a39,39,0,0,0-.26-6.31,18.65,18.65,0,0,0-1.94-6,19.65,19.65,0,0,0-9-8.72,18.7,18.7,0,0,0-6.13-1.81,63.49,63.49,0,0,0-6.49-.16H195.28a19.9,19.9,0,0,0-12.79,4.71,19.6,19.6,0,0,0-6.66,11.79,44.22,44.22,0,0,0-.28,6.92v75c0,35.57,0,69.88,0,102.57s0,63.74,0,92.81q0,21.8,0,42.06,0,10.13,0,19.83v4.82a37.21,37.21,0,0,0,.18,4.74,19.94,19.94,0,0,0,3.26,8.61,20.38,20.38,0,0,0,6.63,6.08,19.29,19.29,0,0,0,8.41,2.49c1.45.11,2.92.05,4.37.07h12.79l31.45,0,50.37,0,31.83.05,8.28,0c1.86,0,2.82,0,2.82,0l-2.82,0-8.28,0-31.83,0-50.37,0-31.45,0H198.33c-1.46,0-2.91,0-4.39-.07a19.6,19.6,0,0,1-8.57-2.53,20.78,20.78,0,0,1-6.76-6.18,20.5,20.5,0,0,1-3.32-8.77,36.54,36.54,0,0,1-.19-4.79v-4.82q0-9.7,0-19.83,0-20.24,0-42.06c0-29.07,0-60.13,0-92.81s0-67,0-102.57q0-26.67,0-54.25V51.35a43.3,43.3,0,0,1,.29-7,20.08,20.08,0,0,1,6.83-12.11,20.46,20.46,0,0,1,13.13-4.84H331.8a65.46,65.46,0,0,1,6.56.17,19.25,19.25,0,0,1,6.27,1.86,20.1,20.1,0,0,1,9.19,8.94,19.09,19.09,0,0,1,2,6.13,39.23,39.23,0,0,1,.26,6.39V88.33c0,65.36,0,124.22-.06,173.66s-.06,89.44-.08,117.09c0,3.45,0,6.72,0,9.78a32.33,32.33,0,0,1-.2,4.45,17.37,17.37,0,0,1-.39,2.08,14.74,14.74,0,0,1-.59,1.95,19.89,19.89,0,0,1-8.31,10.31,19.27,19.27,0,0,1-7.75,2.79,15.46,15.46,0,0,1-2.1.17Z" style="fill:#263238"></path><path d="M332.94,157.18H196.38a20,20,0,0,0-20,20V389.24A20.76,20.76,0,0,0,197.17,410H332.79a20.78,20.78,0,0,0,20.77-20.83l-.64-212.08A20,20,0,0,0,332.94,157.18Z" style="fill:#ebebeb"></path><path d="M196.83,55.41h-6a.73.73,0,0,1-.72-.73h0a.72.72,0,0,1,.72-.72h6a.73.73,0,0,1,.73.72h0A.73.73,0,0,1,196.83,55.41Z" style="fill:#263238"></path><path d="M196.83,62.73h-6a.72.72,0,0,1-.72-.72h0a.73.73,0,0,1,.72-.73h6a.73.73,0,0,1,.73.73h0A.73.73,0,0,1,196.83,62.73Z" style="fill:#263238"></path><path d="M199,59.21h-8.19a.72.72,0,0,1-.72-.72h0a.73.73,0,0,1,.72-.73H199a.73.73,0,0,1,.72.73h0A.72.72,0,0,1,199,59.21Z" style="fill:#263238"></path><path d="M330,60.46a4.77,4.77,0,1,1,3-1.07A4.79,4.79,0,0,1,330,60.46Zm0-8.56a3.78,3.78,0,1,0,3.78,3.78A3.78,3.78,0,0,0,330,51.9Z" style="fill:#263238"></path><path d="M336,62.46a.5.5,0,0,1-.33-.12l-3.31-3a.5.5,0,1,1,.67-.74l3.3,3a.5.5,0,0,1,0,.71A.49.49,0,0,1,336,62.46Z" style="fill:#263238"></path><path d="M199.74,85.09v5.7h-1.32V88.45h-2.59v2.34h-1.32v-5.7h1.32v2.25h2.59V85.09Z" style="fill:#263238"></path><path d="M205.28,89H202a1.17,1.17,0,0,0,1.25.88,1.46,1.46,0,0,0,1.1-.43l.68.74a2.32,2.32,0,0,1-1.81.71,2.28,2.28,0,0,1-2.5-2.26A2.23,2.23,0,0,1,203,86.34a2.17,2.17,0,0,1,2.28,2.28C205.3,88.71,205.28,88.85,205.28,89Zm-3.34-.74h2.16a1.09,1.09,0,0,0-2.16,0Z" style="fill:#263238"></path><path d="M206.15,84.75h1.27v6h-1.27Z" style="fill:#263238"></path><path d="M208.61,84.75h1.27v6h-1.27Z" style="fill:#263238"></path><path d="M210.73,88.6a2.41,2.41,0,1,1,2.42,2.26A2.26,2.26,0,0,1,210.73,88.6Zm3.53,0a1.12,1.12,0,1,0-1.11,1.21A1.1,1.1,0,0,0,214.26,88.6Z" style="fill:#263238"></path><path d="M216.21,90.12a.79.79,0,0,1,1.57,0,.79.79,0,0,1-1.57,0Zm0-5h1.51l-.25,3.72h-1Z" style="fill:#263238"></path><path d="M304.79,66.07H215.05a9.4,9.4,0,0,1-9.39-9.39h0a9.39,9.39,0,0,1,9.39-9.39h89.74a9.38,9.38,0,0,1,9.38,9.39h0A9.39,9.39,0,0,1,304.79,66.07Z" style="fill:#ebebeb"></path><rect x="188.5" y="183.5" width="154.12" height="62.63" rx="14.42" style="fill:#f5f5f5"></rect><rect x="200.43" y="194.44" width="40.75" height="40.75" rx="10.86" style="fill:#455a64"></rect><path d="M259.3,207.14h1.21v2.32a4,4,0,0,1-2.31.72,3,3,0,1,1,0-5.9,3,3,0,0,1,2.39,1l-.85.78a1.91,1.91,0,0,0-1.47-.64,1.83,1.83,0,1,0,0,3.65,2.09,2.09,0,0,0,1-.25Z" style="fill:#263238"></path><path d="M264.36,205.64v1.17l-.28,0a1.09,1.09,0,0,0-1.17,1.23v2.07h-1.27V205.7h1.22v.58A1.77,1.77,0,0,1,264.36,205.64Z" style="fill:#263238"></path><path d="M269,207.58v2.51h-1.19v-.55a1.44,1.44,0,0,1-1.34.61c-1,0-1.63-.57-1.63-1.33s.54-1.31,1.88-1.31h1c0-.54-.33-.86-1-.86a2.08,2.08,0,0,0-1.26.4l-.46-.88a3.31,3.31,0,0,1,1.89-.53C268.21,205.64,269,206.26,269,207.58Zm-1.27,1.12v-.45h-.87c-.6,0-.79.22-.79.52s.27.53.72.53A1,1,0,0,0,267.71,208.7Z" style="fill:#263238"></path><path d="M274.91,207.89a2.14,2.14,0,0,1-2.19,2.26,1.71,1.71,0,0,1-1.32-.53v2h-1.27v-6h1.22v.51a1.67,1.67,0,0,1,1.37-.57A2.13,2.13,0,0,1,274.91,207.89Zm-1.29,0a1.12,1.12,0,1,0-1.12,1.22A1.11,1.11,0,0,0,273.62,207.89Z" style="fill:#263238"></path><path d="M280.24,207.58v2.51H279v-2.32c0-.71-.33-1-.89-1s-1.05.37-1.05,1.18v2.17h-1.27V204H277v2.12a1.93,1.93,0,0,1,1.39-.52A1.72,1.72,0,0,1,280.24,207.58Z" style="fill:#263238"></path><path d="M281.24,204.38a.73.73,0,0,1,.79-.71.72.72,0,0,1,.79.69.79.79,0,0,1-1.58,0Zm.15,1.32h1.27v4.39h-1.27Z" style="fill:#263238"></path><path d="M283.52,207.89a2.26,2.26,0,0,1,2.45-2.25,2,2,0,0,1,2,1.11l-1,.53a1.08,1.08,0,0,0-1-.6,1.22,1.22,0,0,0,0,2.43,1.07,1.07,0,0,0,1-.6l1,.53a2,2,0,0,1-2,1.11A2.27,2.27,0,0,1,283.52,207.89Z" style="fill:#263238"></path><path d="M291.07,204.38h2.59a2.87,2.87,0,1,1,0,5.71h-2.59Zm2.52,4.62a1.77,1.77,0,1,0,0-3.53h-1.21V209Z" style="fill:#263238"></path><path d="M302,208.25h-3.32a1.18,1.18,0,0,0,1.26.88,1.51,1.51,0,0,0,1.1-.42l.67.73a2.25,2.25,0,0,1-1.8.71,2.28,2.28,0,0,1-2.51-2.26,2.23,2.23,0,0,1,2.34-2.25,2.16,2.16,0,0,1,2.28,2.27C302,208,302,208.15,302,208.25Zm-3.33-.74h2.16a1,1,0,0,0-1.08-.91A1,1,0,0,0,298.65,207.51Z" style="fill:#263238"></path><path d="M302.43,209.68l.43-.91a3,3,0,0,0,1.52.42c.59,0,.81-.16.81-.4,0-.72-2.65,0-2.65-1.74,0-.83.75-1.41,2-1.41a3.62,3.62,0,0,1,1.68.38l-.42.9a2.54,2.54,0,0,0-1.26-.32c-.57,0-.82.18-.82.41,0,.75,2.65,0,2.65,1.75,0,.81-.76,1.39-2.07,1.39A3.77,3.77,0,0,1,302.43,209.68Z" style="fill:#263238"></path><path d="M307,204.38a.73.73,0,0,1,.79-.71.72.72,0,0,1,.79.69.79.79,0,0,1-1.58,0Zm.16,1.32h1.27v4.39h-1.27Z" style="fill:#263238"></path><path d="M314.16,205.7v3.65a2.15,2.15,0,0,1-2.46,2.38,3.62,3.62,0,0,1-2.15-.6l.51-.91a2.6,2.6,0,0,0,1.55.49c.89,0,1.28-.4,1.28-1.19v-.19a1.81,1.81,0,0,1-1.38.54,2.12,2.12,0,1,1,0-4.23,1.77,1.77,0,0,1,1.45.62v-.56Zm-1.25,2.06a1.16,1.16,0,1,0-1.15,1.07A1.06,1.06,0,0,0,312.91,207.76Z" style="fill:#263238"></path><path d="M319.83,207.58v2.51h-1.27v-2.32c0-.71-.33-1-.89-1s-1.05.37-1.05,1.18v2.17h-1.27V205.7h1.21v.52a1.9,1.9,0,0,1,1.45-.58A1.72,1.72,0,0,1,319.83,207.58Z" style="fill:#263238"></path><path d="M331.16,216.75c0,.14-16.91.26-37.76.26s-37.76-.12-37.76-.26,16.9-.26,37.76-.26S331.16,216.6,331.16,216.75Z" style="fill:#263238"></path><path d="M331.57,223.06c0,.14-17.2.26-38.4.26s-38.4-.12-38.4-.26,17.19-.26,38.4-.26S331.57,222.91,331.57,223.06Z" style="fill:#263238"></path><path d="M272.21,230.08a74.21,74.21,0,0,1-8.72.26,74.21,74.21,0,0,1-8.72-.26,71.69,71.69,0,0,1,8.72-.26A71.69,71.69,0,0,1,272.21,230.08Z" style="fill:#263238"></path><polygon points="221.21 202.77 214.22 218.94 217.53 222.34 217.52 225 225.9 224.88 225.82 222.16 228.88 218.4 221.21 202.77" style="fill:#fafafa"></polygon><path d="M221.21,202.77c.22.43,3.18,6.43,7.72,15.6v0l0,0-3.06,3.77,0,0c0,.86.05,1.79.08,2.72v.06h-.06l-4.27.06-4.11.06h-.06V225c0-.9,0-1.79,0-2.66l0,0L214.18,219l0,0v0c4.13-9.45,6.86-15.69,7.05-16.14L214.27,219l0-.06,3.32,3.4,0,0v0c0,.87,0,1.75,0,2.66l-.06-.06,4.1-.07,4.28-.06-.06.06c0-.93-.05-1.85-.08-2.72v0h0l3.07-3.77v.06Z" style="fill:#263238"></path><path d="M224.38,215.71a2.51,2.51,0,0,1-2.49,2.58,2.6,2.6,0,0,1-2.64-2.51,2.5,2.5,0,0,1,2.49-2.58A2.6,2.6,0,0,1,224.38,215.71Z" style="fill:#263238"></path><path d="M221.21,202.77s.2,2.9.36,6.48.28,6.49.25,6.49-.2-2.9-.37-6.48S221.18,202.77,221.21,202.77Z" style="fill:#263238"></path><polygon points="226.65 227.72 217.04 227.86 216.94 224.54 226.56 224.4 226.65 227.72" style="fill:#7E57C2"></polygon><polygon points="221.75 202.76 220.7 202.78 220.67 201.66 221.71 201.64 221.75 202.76" style="fill:#7E57C2"></polygon><path d="M229.66,202.27c0,.07-3.68.17-8.22.22s-8.22,0-8.22-.05,3.67-.18,8.21-.22S229.66,202.19,229.66,202.27Z" style="fill:#7E57C2"></path><path d="M229.92,202.2a.38.38,0,0,1-.39.4.41.41,0,0,1-.42-.38.41.41,0,0,1,.81,0Z" style="fill:#7E57C2"></path><path d="M213.43,202.34a.4.4,0,0,1-.39.41.42.42,0,0,1-.42-.39A.4.4,0,0,1,213,202,.41.41,0,0,1,213.43,202.34Z" style="fill:#7E57C2"></path><g style="opacity:0.5"><polygon points="219.58 224.5 222.58 227.69 223.85 227.76 220.77 224.48 219.58 224.5" style="fill:#fff"></polygon></g><rect x="188.5" y="257.6" width="154.12" height="62.63" rx="14.1" style="fill:#f5f5f5"></rect><path d="M260.68,278.48v5.71h-1.32v-2.34h-2.59v2.34h-1.32v-5.71h1.32v2.25h2.59v-2.25Z" style="fill:#263238"></path><path d="M264.77,284a1.86,1.86,0,0,1-1,.27,1.44,1.44,0,0,1-1.64-1.57v-1.8h-.68v-1h.68v-1.06h1.27v1.06h1.09v1h-1.09v1.79a.51.51,0,0,0,.55.57.84.84,0,0,0,.51-.16Z" style="fill:#263238"></path><path d="M272.9,281.68v2.51h-1.27v-2.32c0-.7-.32-1-.83-1s-1,.37-1,1.15v2.2h-1.27v-2.32c0-.7-.31-1-.84-1s-1,.37-1,1.15v2.2h-1.27v-4.38h1.22v.5a1.77,1.77,0,0,1,1.37-.57,1.66,1.66,0,0,1,1.45.72,2,2,0,0,1,1.58-.72A1.7,1.7,0,0,1,272.9,281.68Z" style="fill:#263238"></path><path d="M274.05,278.14h1.27v6.05h-1.27Z" style="fill:#263238"></path><path d="M282.69,281.69v2.5H281.5v-.55a1.45,1.45,0,0,1-1.34.61c-1,0-1.64-.57-1.64-1.32s.55-1.32,1.88-1.32h1c0-.54-.33-.86-1-.86a2.07,2.07,0,0,0-1.26.41l-.45-.89a3.39,3.39,0,0,1,1.89-.53C281.91,279.74,282.69,280.36,282.69,281.69Zm-1.27,1.11v-.44h-.88c-.59,0-.78.22-.78.51s.27.53.72.53A1,1,0,0,0,281.42,282.8Z" style="fill:#263238"></path><path d="M288.32,281.68v2.51h-1.27v-2.32c0-.7-.33-1-.89-1s-1.05.38-1.05,1.18v2.17h-1.27v-4.38h1.21v.51a1.92,1.92,0,0,1,1.45-.58A1.72,1.72,0,0,1,288.32,281.68Z" style="fill:#263238"></path><path d="M294,278.14v6.05h-1.21v-.51a1.68,1.68,0,0,1-1.37.57,2.26,2.26,0,0,1,0-4.51,1.69,1.69,0,0,1,1.31.53v-2.13ZM292.74,282a1.12,1.12,0,1,0-1.11,1.21A1.11,1.11,0,0,0,292.74,282Z" style="fill:#263238"></path><path d="M297.2,281.34a3.15,3.15,0,0,1,5.45-1.94l-.85.78a1.82,1.82,0,0,0-1.43-.67,1.83,1.83,0,1,0,0,3.65,1.82,1.82,0,0,0,1.43-.67l.85.78a3.14,3.14,0,0,1-5.45-1.93Z" style="fill:#263238"></path><path d="M303,283.63l.45-1a3.36,3.36,0,0,0,1.88.6c.79,0,1.1-.26,1.1-.61,0-1.07-3.31-.34-3.31-2.46,0-1,.78-1.77,2.4-1.77a3.86,3.86,0,0,1,2,.5l-.41,1a3.18,3.18,0,0,0-1.58-.44c-.78,0-1.08.29-1.08.65,0,1,3.32.32,3.32,2.42,0,1-.79,1.77-2.42,1.77A4.1,4.1,0,0,1,303,283.63Z" style="fill:#263238"></path><path d="M308.25,283.63l.44-1a3.4,3.4,0,0,0,1.89.6c.78,0,1.1-.26,1.1-.61,0-1.07-3.32-.34-3.32-2.46,0-1,.78-1.77,2.4-1.77a3.86,3.86,0,0,1,2,.5l-.4,1a3.24,3.24,0,0,0-1.58-.44c-.79,0-1.09.29-1.09.65,0,1,3.32.32,3.32,2.42,0,1-.79,1.77-2.42,1.77A4,4,0,0,1,308.25,283.63Z" style="fill:#263238"></path><path d="M331.16,290.85c0,.14-16.91.26-37.76.26s-37.76-.12-37.76-.26,16.9-.26,37.76-.26S331.16,290.7,331.16,290.85Z" style="fill:#263238"></path><path d="M331.57,297.16c0,.14-17.2.26-38.4.26s-38.4-.12-38.4-.26,17.19-.26,38.4-.26S331.57,297,331.57,297.16Z" style="fill:#263238"></path><path d="M272.21,304.18a74.21,74.21,0,0,1-8.72.26,74.21,74.21,0,0,1-8.72-.26,71.69,71.69,0,0,1,8.72-.26A71.69,71.69,0,0,1,272.21,304.18Z" style="fill:#263238"></path><rect x="188.5" y="331.7" width="154.12" height="62.63" rx="16.85" style="fill:#f5f5f5"></rect><path d="M255.45,352.58h1.32v5.71h-1.32Z" style="fill:#263238"></path><path d="M258,352.24h1.27v6.05H258Z" style="fill:#263238"></path><path d="M260.49,352.24h1.27v6.05h-1.27Z" style="fill:#263238"></path><path d="M267.36,353.9v4.39h-1.21v-.52a1.77,1.77,0,0,1-1.36.58,1.74,1.74,0,0,1-1.87-2V353.9h1.27v2.29c0,.74.32,1.06.88,1.06s1-.37,1-1.18V353.9Z" style="fill:#263238"></path><path d="M268.12,357.88l.42-.91a3,3,0,0,0,1.53.42c.58,0,.8-.15.8-.4,0-.71-2.65,0-2.65-1.73,0-.83.75-1.42,2-1.42a3.67,3.67,0,0,1,1.69.38l-.42.91a2.51,2.51,0,0,0-1.27-.33c-.57,0-.81.18-.81.41,0,.75,2.65,0,2.65,1.75,0,.81-.76,1.39-2.07,1.39A3.77,3.77,0,0,1,268.12,357.88Z" style="fill:#263238"></path><path d="M275.7,358.08a1.87,1.87,0,0,1-1,.27,1.44,1.44,0,0,1-1.63-1.57V355h-.68v-1H273v-1.07h1.27V354h1.09v1H274.3v1.78a.51.51,0,0,0,.54.58.85.85,0,0,0,.52-.16Z" style="fill:#263238"></path><path d="M279.14,353.84V355h-.28a1.07,1.07,0,0,0-1.17,1.22v2.07h-1.27V353.9h1.21v.58A1.78,1.78,0,0,1,279.14,353.84Z" style="fill:#263238"></path><path d="M283.75,355.79v2.5h-1.18v-.55a1.45,1.45,0,0,1-1.34.61c-1,0-1.64-.57-1.64-1.32s.55-1.32,1.88-1.32h1c0-.54-.32-.86-1-.86a2.07,2.07,0,0,0-1.26.41l-.46-.89a3.41,3.41,0,0,1,1.89-.53C283,353.84,283.75,354.46,283.75,355.79Zm-1.27,1.11v-.44h-.87c-.59,0-.78.22-.78.51s.27.53.72.53A.93.93,0,0,0,282.48,356.9Z" style="fill:#263238"></path><path d="M287.74,358.08a1.92,1.92,0,0,1-1,.27,1.45,1.45,0,0,1-1.64-1.57V355h-.67v-1h.67v-1.07h1.27V354h1.1v1h-1.1v1.78a.51.51,0,0,0,.55.58.82.82,0,0,0,.51-.16Z" style="fill:#263238"></path><path d="M288.3,352.58a.73.73,0,0,1,.79-.7.71.71,0,0,1,.79.68.79.79,0,0,1-1.58,0Zm.16,1.32h1.27v4.39h-1.27Z" style="fill:#263238"></path><path d="M290.58,356.1a2.42,2.42,0,1,1,2.42,2.25A2.26,2.26,0,0,1,290.58,356.1Zm3.53,0a1.12,1.12,0,1,0-1.11,1.21A1.11,1.11,0,0,0,294.11,356.1Z" style="fill:#263238"></path><path d="M300.73,355.78v2.51h-1.27V356c0-.71-.32-1-.89-1s-1.05.37-1.05,1.18v2.17h-1.27V353.9h1.22v.52a1.89,1.89,0,0,1,1.45-.58A1.71,1.71,0,0,1,300.73,355.78Z" style="fill:#263238"></path><path d="M331.16,365c0,.14-16.91.26-37.76.26s-37.76-.12-37.76-.26,16.9-.26,37.76-.26S331.16,364.8,331.16,365Z" style="fill:#263238"></path><path d="M331.57,371.26c0,.14-17.2.26-38.4.26s-38.4-.12-38.4-.26S272,371,293.17,371,331.57,371.12,331.57,371.26Z" style="fill:#263238"></path><path d="M272.21,378.28a74.21,74.21,0,0,1-8.72.26,74.21,74.21,0,0,1-8.72-.26,71.69,71.69,0,0,1,8.72-.26A71.69,71.69,0,0,1,272.21,378.28Z" style="fill:#263238"></path><path d="M203.74,108.67l0-5.23-2.54,4.26h-1.24l-2.53-4.12v5.09h-2.58V98.79h2.3l3.47,5.71L204,98.79h2.3l0,9.88Z" style="fill:#7E57C2"></path><path d="M216.22,101l-3.3,8c-.81,2-1.93,2.56-3.45,2.56a3.75,3.75,0,0,1-2.21-.69l.93-1.88a1.83,1.83,0,0,0,1.19.45,1,1,0,0,0,1-.65L207.15,101h2.75l1.88,4.68,1.89-4.68Z" style="fill:#7E57C2"></path><path d="M220.64,103.73a5.11,5.11,0,0,1,5.44-5.13,5.23,5.23,0,0,1,4.25,1.86l-1.78,1.61a2.93,2.93,0,0,0-2.33-1.16,2.83,2.83,0,0,0,0,5.65,2.93,2.93,0,0,0,2.33-1.16l1.78,1.61a5.23,5.23,0,0,1-4.25,1.86A5.11,5.11,0,0,1,220.64,103.73Z" style="fill:#7E57C2"></path><path d="M230.73,104.83A4,4,0,0,1,235,100.9c2.53,0,4.32,1.63,4.32,3.93a4.33,4.33,0,0,1-8.63,0Zm5.92,0a1.62,1.62,0,1,0-3.21,0,1.62,1.62,0,1,0,3.21,0Z" style="fill:#7E57C2"></path><path d="M248.65,101v7.65H246.1v-.82a3,3,0,0,1-2.27,1c-1.88,0-3.25-1.07-3.25-3.5V101h2.68v3.84c0,1.19.47,1.65,1.27,1.65s1.44-.52,1.44-1.8V101Z" style="fill:#7E57C2"></path><path d="M255.5,100.9v2.41a4.52,4.52,0,0,0-.6,0,1.67,1.67,0,0,0-1.84,1.89v3.51h-2.68V101h2.55v.92A3.13,3.13,0,0,1,255.5,100.9Z" style="fill:#7E57C2"></path><path d="M256,108l.81-1.83a5.41,5.41,0,0,0,2.67.7c.9,0,1.2-.2,1.2-.52,0-1-4.52.14-4.52-2.92,0-1.44,1.33-2.54,3.73-2.54a6.65,6.65,0,0,1,3,.65l-.81,1.82a4.4,4.4,0,0,0-2.2-.57c-.9,0-1.23.26-1.23.54,0,1.06,4.5-.09,4.5,3,0,1.41-1.29,2.51-3.78,2.51A7,7,0,0,1,256,108Z" style="fill:#7E57C2"></path><path d="M272.12,105.53h-5.56a1.77,1.77,0,0,0,1.88,1.22,2.44,2.44,0,0,0,1.76-.66l1.41,1.47a4.12,4.12,0,0,1-3.26,1.24c-2.72,0-4.49-1.68-4.49-4a4,4,0,0,1,4.21-3.93,3.83,3.83,0,0,1,4.09,4C272.16,105.06,272.14,105.31,272.12,105.53Zm-5.6-1.42h3.13a1.59,1.59,0,0,0-3.13,0Z" style="fill:#7E57C2"></path><path d="M272.8,108l.81-1.83a5.41,5.41,0,0,0,2.67.7c.9,0,1.19-.2,1.19-.52,0-1-4.51.14-4.51-2.92,0-1.44,1.32-2.54,3.72-2.54a6.6,6.6,0,0,1,3,.65l-.8,1.82a4.4,4.4,0,0,0-2.2-.57c-.91,0-1.23.26-1.23.54,0,1.06,4.5-.09,4.5,3,0,1.41-1.3,2.51-3.78,2.51A7,7,0,0,1,272.8,108Z" style="fill:#7E57C2"></path><path d="M336,118.14c0,.14-31.82.26-71.07.26s-71.07-.12-71.07-.26,31.82-.26,71.07-.26S336,118,336,118.14Z" style="fill:#263238"></path><path d="M335.65,126.27c0,.14-31.83.26-71.07.26s-71.08-.12-71.08-.26,31.82-.26,71.08-.26S335.65,126.13,335.65,126.27Z" style="fill:#263238"></path><path d="M271.94,134.53c0,.15-17.56.26-39.22.26s-39.22-.11-39.22-.26,17.56-.26,39.22-.26S271.94,134.39,271.94,134.53Z" style="fill:#263238"></path><rect x="201.45" y="341.1" width="40.75" height="40.75" rx="10.86" style="fill:#455a64"></rect><polygon points="222.23 349.43 215.23 365.6 218.55 369 218.54 371.66 226.91 371.54 226.84 368.82 229.9 365.06 222.23 349.43" style="fill:#fafafa"></polygon><path d="M222.23,349.43l7.71,15.6,0,0,0,0-3.06,3.77v0c0,.86.06,1.78.08,2.72v.06h-.06l-4.28.06-4.1.06h-.06v-.06c0-.9,0-1.79,0-2.66l0,0c-1.15-1.18-2.26-2.31-3.32-3.41l0,0v0c4.13-9.45,6.85-15.7,7-16.14-.2.45-2.88,6.71-6.95,16.19v-.06l3.32,3.4,0,0v0c0,.87,0,1.75,0,2.66l-.06-.07,4.1-.06,4.27-.06,0,.06c0-.93-.06-1.85-.08-2.72v0h0l3.06-3.77v.06Z" style="fill:#263238"></path><path d="M225.4,362.37a2.52,2.52,0,0,1-2.49,2.58,2.6,2.6,0,0,1-2.64-2.51,2.5,2.5,0,0,1,2.49-2.58A2.61,2.61,0,0,1,225.4,362.37Z" style="fill:#263238"></path><path d="M222.23,349.43s.19,2.9.36,6.48.27,6.49.24,6.49-.19-2.9-.36-6.48S222.19,349.43,222.23,349.43Z" style="fill:#263238"></path><polygon points="227.67 374.38 218.06 374.52 217.96 371.2 227.57 371.06 227.67 374.38" style="fill:#7E57C2"></polygon><polygon points="222.76 349.42 221.72 349.44 221.68 348.32 222.72 348.3 222.76 349.42" style="fill:#7E57C2"></polygon><path d="M230.67,348.92c0,.08-3.67.18-8.21.23s-8.23,0-8.23,0,3.68-.18,8.22-.23S230.67,348.85,230.67,348.92Z" style="fill:#7E57C2"></path><path d="M230.94,348.86a.39.39,0,0,1-.39.4.41.41,0,0,1-.42-.38.4.4,0,0,1,.39-.41A.42.42,0,0,1,230.94,348.86Z" style="fill:#7E57C2"></path><path d="M214.45,349a.41.41,0,0,1-.81,0,.39.39,0,0,1,.39-.41A.42.42,0,0,1,214.45,349Z" style="fill:#7E57C2"></path><g style="opacity:0.5"><polygon points="220.59 371.16 223.59 374.35 224.87 374.42 221.78 371.14 220.59 371.16" style="fill:#fff"></polygon></g><rect x="201.45" y="266.88" width="40.75" height="40.75" rx="10.86" style="fill:#263238"></rect><polygon points="222.23 275.21 215.23 291.38 218.55 294.79 218.54 297.45 226.91 297.32 226.84 294.61 229.9 290.84 222.23 275.21" style="fill:#fafafa"></polygon><path d="M222.23,275.21c.21.44,3.18,6.43,7.71,15.61l0,0,0,0-3.06,3.76v0c0,.86.06,1.78.08,2.71v.06h-.06l-4.28.07-4.1.06h-.06v-.06c0-.9,0-1.79,0-2.66l0,0-3.32-3.41,0,0v0l7-16.15c-.2.45-2.88,6.71-6.95,16.19v-.06l3.32,3.41,0,0v0c0,.87,0,1.76,0,2.66l-.06-.06,4.1-.06,4.27-.06,0,.06c0-.94-.06-1.86-.08-2.72v0l3.06-3.76v.05Z" style="fill:#263238"></path><path d="M225.4,288.15a2.51,2.51,0,0,1-2.49,2.58,2.6,2.6,0,0,1-2.64-2.51,2.51,2.51,0,0,1,2.49-2.58A2.61,2.61,0,0,1,225.4,288.15Z" style="fill:#263238"></path><path d="M222.23,275.21s.19,2.9.36,6.49.27,6.49.24,6.49-.19-2.91-.36-6.49S222.19,275.21,222.23,275.21Z" style="fill:#263238"></path><polygon points="227.67 300.16 218.06 300.3 217.96 296.98 227.57 296.84 227.67 300.16" style="fill:#7E57C2"></polygon><polygon points="222.76 275.2 221.72 275.22 221.68 274.1 222.72 274.08 222.76 275.2" style="fill:#7E57C2"></polygon><path d="M230.67,274.71c0,.07-3.67.17-8.21.22s-8.23,0-8.23-.05,3.68-.17,8.22-.22S230.67,274.63,230.67,274.71Z" style="fill:#7E57C2"></path><path d="M230.94,274.64a.4.4,0,0,1-.39.41.42.42,0,0,1-.42-.39.4.4,0,0,1,.39-.41A.42.42,0,0,1,230.94,274.64Z" style="fill:#7E57C2"></path><path d="M214.45,274.79a.39.39,0,0,1-.39.4.4.4,0,0,1-.42-.39.38.38,0,0,1,.39-.4A.41.41,0,0,1,214.45,274.79Z" style="fill:#7E57C2"></path><g style="opacity:0.5"><polygon points="220.59 296.94 223.59 300.13 224.87 300.2 221.78 296.93 220.59 296.94" style="fill:#fff"></polygon></g></g><g id="freepik--speech-bubble--inject-27"><circle cx="78.58" cy="173.76" r="25.72" transform="translate(-99.85 106.46) rotate(-45)" style="fill:#fff"></circle><path d="M104.31,173.76a2,2,0,0,1,0-.42c0-.3-.05-.7-.09-1.22,0-.27,0-.57-.06-.9s-.1-.68-.16-1.07a19.35,19.35,0,0,0-.55-2.65,24.67,24.67,0,0,0-2.85-6.81A25.53,25.53,0,0,0,69.9,149.82a27.68,27.68,0,0,0-3.32,1.46,27.13,27.13,0,0,0-3.12,2,27.86,27.86,0,0,0-2.89,2.46,29.5,29.5,0,0,0-2.5,2.95,24.91,24.91,0,0,0-3.64,7,25.3,25.3,0,0,0,0,16.07,24.91,24.91,0,0,0,3.64,7,29.5,29.5,0,0,0,2.5,2.95,27.86,27.86,0,0,0,2.89,2.46,25.85,25.85,0,0,0,3.12,2,27,27,0,0,0,3.32,1.46,25.57,25.57,0,0,0,30.65-10.87A24.55,24.55,0,0,0,103.4,180a19.35,19.35,0,0,0,.55-2.65c.06-.39.13-.74.16-1.07s0-.63.06-.9c0-.51.07-.92.09-1.22a1.91,1.91,0,0,1,0-.41,2.12,2.12,0,0,1,0,.41l0,1.23c0,.27,0,.57,0,.9s-.09.69-.14,1.08a17.62,17.62,0,0,1-.5,2.68,24.36,24.36,0,0,1-2.8,6.91,25.81,25.81,0,0,1-31.06,11.17,26.58,26.58,0,0,1-3.39-1.48,27.74,27.74,0,0,1-3.19-2,28.9,28.9,0,0,1-2.95-2.5,29.58,29.58,0,0,1-2.55-3A25.13,25.13,0,0,1,53.94,182a25.76,25.76,0,0,1,0-16.4,25.08,25.08,0,0,1,3.72-7.15,30.92,30.92,0,0,1,2.55-3,30.24,30.24,0,0,1,2.95-2.5,27.74,27.74,0,0,1,3.19-2,26.58,26.58,0,0,1,3.39-1.48,25.92,25.92,0,0,1,13.63-1.09,25.85,25.85,0,0,1,17.43,12.27,24.2,24.2,0,0,1,2.8,6.9,17.85,17.85,0,0,1,.5,2.68c.05.39.12.75.14,1.08s0,.63,0,.9q0,.78,0,1.23A2.21,2.21,0,0,1,104.31,173.76Z" style="fill:#263238"></path><circle cx="88" cy="173.64" r="2.35" style="fill:#263238"></circle><path d="M76.23,173.64a2.36,2.36,0,1,0,2.35-2.35A2.35,2.35,0,0,0,76.23,173.64Z" style="fill:#263238"></path><path d="M66.84,172.46a2.36,2.36,0,1,0,3.21-.86A2.36,2.36,0,0,0,66.84,172.46Z" style="fill:#263238"></path><path d="M118.25,183.87a3.87,3.87,0,1,1-3.87-3.87A3.87,3.87,0,0,1,118.25,183.87Z" style="fill:#fff"></path><path d="M118.25,183.87s0-.34-.22-.92a3.83,3.83,0,0,0-1.42-2,3.7,3.7,0,0,0-3.46-.47,3.64,3.64,0,1,0,3.46,6.33,3.76,3.76,0,0,0,1.42-2c.17-.57.18-.92.22-.92a1.8,1.8,0,0,1,0,1,3.83,3.83,0,0,1-1.39,2.26,4.06,4.06,0,0,1-3.86.63,4.09,4.09,0,0,1,0-7.72,4.06,4.06,0,0,1,3.86.64,3.81,3.81,0,0,1,1.39,2.25A1.77,1.77,0,0,1,118.25,183.87Z" style="fill:#263238"></path></g><g id="freepik--Character--inject-27"><path d="M187.92,180.91a35.73,35.73,0,0,1-11.41,27l-5.1-14.77" style="fill:#263238"></path><path d="M149.48,151.52c4.37-2.39,9.66-2.73,14.55-1.75a45.8,45.8,0,0,1,13.77,5.69,22.48,22.48,0,0,1,6.58,5.13c3.18,4,6.32,10.57,6.63,15.67.25,4.12-1.33,14.44-3.08,18.19-1.59,3.44-9.08,6.05-12.77,6.9l-33.9-39.43A17.12,17.12,0,0,1,149.48,151.52Z" style="fill:#263238"></path><path d="M143.63,156.84l8.13-1.45c-4.44,10.58-5.65,34.77-8.19,46-3-4.35-9.95-17.59-9.58-22.85S134,155.94,143.63,156.84Z" style="fill:#263238"></path><path d="M139,174.09c.53-8.12,5.94-18.07,14-17.2l18.72,4.78a13.88,13.88,0,0,1,10.44,12.78c0,.31.05-.07.05.17L178,223.08,164,251h0l-12.39-26.41c0-4,0-9.93,0-9.91s-10.37-1.74-12.49-15.28C138,192.62,138.4,183.11,139,174.09Z" style="fill:#ffbf9d"></path><path d="M144.78,185.19a1.75,1.75,0,0,0,1.67,1.76,1.67,1.67,0,0,0,1.8-1.56,1.74,1.74,0,0,0-1.67-1.76A1.67,1.67,0,0,0,144.78,185.19Z" style="fill:#263238"></path><path d="M141,179.39c.21.23,1.53-.74,3.4-.73s3.23.94,3.43.71-.12-.51-.71-.94a4.75,4.75,0,0,0-2.75-.86,4.61,4.61,0,0,0-2.71.87C141.11,178.88,140.91,179.29,141,179.39Z" style="fill:#263238"></path><path d="M160.44,185.19a1.74,1.74,0,0,0,1.67,1.76,1.66,1.66,0,0,0,1.79-1.56,1.73,1.73,0,0,0-1.67-1.76A1.66,1.66,0,0,0,160.44,185.19Z" style="fill:#263238"></path><path d="M158.75,179.39c.22.23,1.54-.74,3.4-.73s3.24.94,3.44.71-.12-.51-.71-.94a4.75,4.75,0,0,0-2.75-.86,4.58,4.58,0,0,0-2.71.87C158.85,178.88,158.65,179.29,158.75,179.39Z" style="fill:#263238"></path><path d="M152.92,194.06a12.51,12.51,0,0,0-3-.56c-.47-.05-.93-.14-1-.47a2.3,2.3,0,0,1,.32-1.41l1.42-3.63c2-5.16,3.39-9.41,3.18-9.49s-2,4.05-3.94,9.21l-1.36,3.65a2.78,2.78,0,0,0-.25,1.87,1.17,1.17,0,0,0,.78.7,3.24,3.24,0,0,0,.81.12A12.31,12.31,0,0,0,152.92,194.06Z" style="fill:#263238"></path><path d="M169.53,209.82s-4.41,9.3-17.95,8v-3.18A34,34,0,0,0,169.53,209.82Z" style="fill:#ff9a6c"></path><path d="M159.34,172.64c.18.51,2,.27,4.24.54s4,.87,4.25.42c.13-.22-.17-.7-.89-1.19a7.44,7.44,0,0,0-6.47-.73C159.67,172,159.26,172.4,159.34,172.64Z" style="fill:#263238"></path><path d="M141.63,173.68c.32.42,1.61,0,3.16,0s2.85.29,3.16-.15c.13-.22-.08-.64-.65-1.05a4.57,4.57,0,0,0-5.09.15C141.66,173,141.48,173.47,141.63,173.68Z" style="fill:#263238"></path><path d="M142.66,161.73a5.94,5.94,0,0,1,5.26-3.37,11.56,11.56,0,0,1,6.24,1.82c8.06,4.66,12.2,15.91,20.17,20.73,2,1.18,4.51.1,6.17,1.67s2.75,4.08,1.83,6.17a18.85,18.85,0,0,0,2.76-4.67,6.37,6.37,0,0,0-.22-5.27c-.69-1.2-1.91-2.11-2.24-3.45-.3-1.17.17-2.4.12-3.62a8.12,8.12,0,0,0-1.24-3.45c-3.12-5.52-7.41-10.51-12.94-13.61a22.89,22.89,0,0,0-11.88-3.07,17.48,17.48,0,0,0-11.3,4.49c-1.78,1.66-3.65,3.37-2.73,5.63" style="fill:#263238"></path><path d="M180.31,184.26c.14-.39,7.2-2.94,7.29,4.56.09,7.29-7.26,5.86-7.28,5.65S180.31,184.26,180.31,184.26Z" style="fill:#ffbf9d"></path><path d="M182.55,191.69s.12.08.34.18a1.27,1.27,0,0,0,1,0,3.15,3.15,0,0,0,1.43-2.83,4.26,4.26,0,0,0-.38-1.82,1.43,1.43,0,0,0-1-1,.65.65,0,0,0-.75.35c-.09.21,0,.35-.08.37s-.16-.12-.1-.43a.8.8,0,0,1,.28-.46,1,1,0,0,1,.7-.19,1.82,1.82,0,0,1,1.34,1.12,4.4,4.4,0,0,1,.46,2c0,1.47-.78,2.85-1.83,3.16a1.35,1.35,0,0,1-1.16-.18C182.56,191.86,182.52,191.7,182.55,191.69Z" style="fill:#ff9a6c"></path><path d="M183.21,180.51a2.06,2.06,0,0,1-.44-.25c-.28-.17-.71-.41-1.22-.77a25.42,25.42,0,0,1-3.94-3.58,69.36,69.36,0,0,1-4.81-6.26,57.27,57.27,0,0,0-6-7.49,23.67,23.67,0,0,0-3.88-3.07,19.52,19.52,0,0,0-4.19-1.9,20.92,20.92,0,0,0-7.73-.95,19.89,19.89,0,0,0-5.17,1c-.6.18-1,.38-1.35.5a3,3,0,0,1-.48.17,3.14,3.14,0,0,1,.45-.23,11.39,11.39,0,0,1,1.34-.56A18.41,18.41,0,0,1,151,156a20.53,20.53,0,0,1,7.83.89,19,19,0,0,1,4.27,1.92,22.43,22.43,0,0,1,3.94,3.11,55.92,55.92,0,0,1,6,7.55,75.75,75.75,0,0,0,4.74,6.27,26.46,26.46,0,0,0,3.83,3.63c.5.38.92.63,1.18.83Z" style="fill:#455a64"></path><path d="M181.37,182.57c.12,2,.21,4.1-.71,5.87s-3.24,3-5,2c-1.41-.81-1.84-2.62-2.07-4.23-.7-4.64-1-9.33-1.74-14Z" style="fill:#263238"></path><path d="M157.51,197.61a3.61,3.61,0,0,1-1.81,5.64,2.18,2.18,0,0,1-1.36,0,3,3,0,0,1-1.44-1.88l-.76-1.89a.85.85,0,0,1-.07-.66.88.88,0,0,1,.61-.36l4.68-1.13" style="fill:#ff9a6c"></path><path d="M154.45,203a4.13,4.13,0,0,0,2.12-.27,3.34,3.34,0,0,0,1.86-1.51,2.49,2.49,0,0,0,.29-1.45,4.35,4.35,0,0,0-.37-1.5,3.85,3.85,0,0,0-.88-1.21l-.12-.12-.16.06c-3.1,1.09-5.52,1.64-5.5,1.78a19.25,19.25,0,0,0,5.68-1.26l-.28-.06a3.51,3.51,0,0,1,.75,1.05A3,3,0,0,1,158,201a3.07,3.07,0,0,1-1.56,1.38C155.26,202.88,154.42,202.94,154.45,203Z" style="fill:#263238"></path><path d="M144.46,158.26s.64-.12,1.81-.16a12.44,12.44,0,0,1,4.82.88,15.83,15.83,0,0,1,3,1.56,30.07,30.07,0,0,1,3.12,2.38,37.76,37.76,0,0,1,6.11,6.58c.92,1.3,1.74,2.64,2.63,3.88a18.57,18.57,0,0,0,2.92,3.28,32.84,32.84,0,0,0,6.16,4.12c1.87,1,3.43,1.68,4.5,2.16l1.25.53a3.05,3.05,0,0,0,.45.16,1.81,1.81,0,0,0-.41-.24l-1.22-.6c-1.05-.52-2.59-1.25-4.43-2.26a34,34,0,0,1-6.05-4.15,18.32,18.32,0,0,1-2.84-3.24c-.87-1.22-1.69-2.56-2.63-3.88a37,37,0,0,0-6.19-6.63,32,32,0,0,0-3.18-2.38,16.3,16.3,0,0,0-3.11-1.54,12,12,0,0,0-4.93-.77,8.82,8.82,0,0,0-1.35.19A1.93,1.93,0,0,0,144.46,158.26Z" style="fill:#455a64"></path><path d="M181.58,178.07a2.91,2.91,0,0,0,.64.43l1.85,1.09.62.36a2.15,2.15,0,0,0,.8.26.76.76,0,0,0,.49-.12.61.61,0,0,0,.27-.48,1.63,1.63,0,0,0-.34-.92l-2.15-3.43-.28.27a7.55,7.55,0,0,0,5,1.47,1.94,1.94,0,0,0,.66-.11.87.87,0,0,0,.56-.49.79.79,0,0,0-.12-.74,3.11,3.11,0,0,0-.41-.46,15.06,15.06,0,0,1-2.49-3.13,24.41,24.41,0,0,1-1.57-3.35,3.15,3.15,0,0,0,.23,1,13,13,0,0,0,1.09,2.52,15,15,0,0,0,2.47,3.25c.27.26.54.56.44.79s-.5.34-.88.34a7,7,0,0,1-2.47-.3,7.35,7.35,0,0,1-2.23-1.09l-.87-.64.59.9,2.18,3.41a1.36,1.36,0,0,1,.31.71c0,.21-.18.33-.42.31a3.75,3.75,0,0,1-1.31-.54l-1.9-1A3.51,3.51,0,0,0,181.58,178.07Z" style="fill:#455a64"></path><polygon points="91.94 429.01 85.92 468.19 92.8 468.19 104.43 429.01 91.94 429.01" style="fill:#263238"></polygon><polygon points="241.51 429.01 247.54 468.19 240.65 468.19 229.02 429.01 241.51 429.01" style="fill:#263238"></polygon><path d="M60.63,325.09c.64,18.36,1.79,95.66,17.78,110.51h13c5.18,0,4.89-2.45,4.7-7.62L92.33,326.8a8.94,8.94,0,0,0-2-5.34c-2.61-3.22-7.84-8.19-15-7.71a21.24,21.24,0,0,0-10.87,3.6A9,9,0,0,0,60.63,325.09Z" style="fill:#455a64"></path><polygon points="240.61 436.73 91.41 435.6 91.41 389.5 240.61 389.5 240.61 436.73" style="fill:#455a64"></polygon><polygon points="240.02 389.5 90.55 390.73 90.55 363.07 240.61 360.26 240.02 389.5" style="fill:#455a64"></polygon><path d="M63.45,319.91s1.11-38.38,43.35-40.37,104.93,0,104.93,0,53.07-2,54.3,31.44l-10.55,64.08H91.64Z" style="fill:#455a64"></path><path d="M272.3,329.17c-1.12,26.46-3.56,104.05-22,107.56H236.66l4.22-113.35s6.35-11.06,16.92-10.35l.32,0A15.48,15.48,0,0,1,272.3,329.17Z" style="fill:#455a64"></path><path d="M264.76,314.64l-.5-.12-1.43-.39-1-.29-1.3-.2c-.46-.06-1-.15-1.5-.21l-1.73,0a18.72,18.72,0,0,0-8.49,2.12l-.58.29-.56.34-1.14.72a25.45,25.45,0,0,0-2.2,1.77,22.72,22.72,0,0,0-4,4.61l0-.08c-.55,11.71-1.24,26.51-2,42.56-.88,19.54-1.51,37.23-1.86,50L236.1,431c0,1.77-.08,3.16-.1,4.12,0,.46,0,.82,0,1.08s0,.36,0,.36,0-.12,0-.36v-1.08c0-1,0-2.35,0-4.12,0-3.59.11-8.77.25-15.18.28-12.82.86-30.52,1.74-50.06.71-16.06,1.47-30.86,2.07-42.55h0s0,0,0-.07a22.86,22.86,0,0,1,4.06-4.66,27.7,27.7,0,0,1,2.24-1.78l1.16-.72.57-.35.59-.29a18.75,18.75,0,0,1,8.61-2.07l1.74.06c.54.06,1.05.16,1.52.23l1.29.22,1.05.31,1.42.44C264.6,314.57,264.76,314.64,264.76,314.64Z" style="fill:#263238"></path><path d="M63.45,318.67a3.68,3.68,0,0,1,.45-.16l1.32-.43,1-.32c.36-.11.76-.17,1.2-.27l1.4-.3c.5-.12,1-.13,1.62-.21a22.08,22.08,0,0,1,8.31.55A20,20,0,0,1,88.16,323a.09.09,0,0,1,0,.08h0c.6,11.51,1.27,26.28,1.82,42.34.65,19,1,36.21,1.2,48.67.07,6.22.13,11.25.17,14.76,0,1.72,0,3.07,0,4,0,.44,0,.79,0,1s0,.36,0,.36a3.28,3.28,0,0,1,0-.36c0-.25,0-.6,0-1,0-.94-.06-2.29-.1-4-.07-3.5-.17-8.54-.3-14.75-.26-12.46-.67-29.67-1.32-48.67-.55-16.06-1.19-30.82-1.73-42.33l0,.09a19.88,19.88,0,0,0-9.27-5.43,22,22,0,0,0-8.22-.62c-.57.07-1.12.08-1.61.19l-1.4.28c-.44.09-.84.14-1.2.25l-1,.29-1.33.38C63.61,318.64,63.45,318.67,63.45,318.67Z" style="fill:#263238"></path><path d="M91.64,390.61l.74,0h2.19l8.4,0,30.91.07c26.1.1,62.16.38,102-.19l1.65,0-.21.2q.21-7.1.42-14c.07-2.31.14-4.59.21-6.86,0-1.13.07-2.26.1-3.38,0-.55,0-1.14,0-1.67a3.37,3.37,0,0,0-.43-1.51,3.82,3.82,0,0,0-2.53-1.87,7.49,7.49,0,0,0-1.66-.1h-1.72l-6.77,0-13.11.09-45.31.46c-12.89.13-23.31.19-30.51.2l-8.29,0-2.16,0c-.48,0-.73,0-.73,0l.73,0,2.16,0,8.29-.06,30.51-.32,45.31-.56,13.11-.1,6.77,0h1.72a7.56,7.56,0,0,1,1.76.1A4.27,4.27,0,0,1,238,363a3.83,3.83,0,0,1,.48,1.68c0,.6,0,1.13,0,1.7,0,1.12-.07,2.25-.1,3.39-.07,2.26-.14,4.55-.21,6.85q-.19,6.9-.42,14a.2.2,0,0,1-.21.2l-1.64,0c-39.82.57-75.88.24-102,.07l-30.91-.2-8.4-.06-2.19,0C91.89,390.63,91.64,390.61,91.64,390.61Z" style="fill:#263238"></path><g style="opacity:0.2"><path d="M90.55,390.73c34.25,7.42,50.55,6.87,82.39,7.41,28.58.49,60-4.66,64.56-7.72Z"></path></g><path d="M109.1,268.52c-.13-.66,2.58-17.61,7.55-29.29,1.83-4.27,3.15-7.25,5-9.09a22.76,22.76,0,0,1,6.21-4.27l23.48-5.29s-1.62,8.28,13.74,7.28c11.45-.74,13.42-9.08,13.42-9.08s22.7,2.55,28.19,7.59,10.8,34.41,10.8,34.41L196.16,267l-2.54,31.09,7.09,15.46s-21.33,16.06-36,15.3-40.2-9.26-40.2-9.26l9.36-19.71-6-29.3Z" style="fill:#7E57C2"></path><path d="M122,245.13a4.84,4.84,0,0,1,.26,1l.57,2.86c.48,2.42,1.17,5.75,2,9.41s1.72,7,2.36,9.34l.75,2.82a5.5,5.5,0,0,1,.23,1,4.84,4.84,0,0,1-.38-1c-.23-.65-.53-1.6-.88-2.78-.71-2.37-1.62-5.66-2.48-9.33s-1.5-7-1.91-9.45c-.2-1.21-.35-2.2-.44-2.89A5.22,5.22,0,0,1,122,245.13Z" style="fill:#263238"></path><path d="M197.79,239.86c.43-.05.22,6.3-.27,14-.25,3.88-.52,7.39-.74,9.92-.11,1.21-.21,2.22-.28,3a5.42,5.42,0,0,1-.17,1.1,7.26,7.26,0,0,1,0-1.11c0-.79.09-1.8.15-3,.16-2.62.38-6.09.62-9.92s.44-7.3.6-9.92A22.91,22.91,0,0,0,197.79,239.86Z" style="fill:#263238"></path><path d="M180.42,297a9.7,9.7,0,0,1-1.23.6c-.4.18-.9.39-1.48.61s-1.25.5-2,.74a54.4,54.4,0,0,1-5.32,1.52,57.92,57.92,0,0,1-6.7,1.09,59.24,59.24,0,0,1-6.78.24,52.87,52.87,0,0,1-5.52-.45c-.78-.09-1.48-.23-2.1-.33s-1.15-.22-1.58-.32a8.54,8.54,0,0,1-1.32-.35,12.31,12.31,0,0,1,1.36.19c.43.08,1,.17,1.58.25s1.31.2,2.09.27c1.56.18,3.43.31,5.5.36a63.67,63.67,0,0,0,6.73-.27,61.93,61.93,0,0,0,6.65-1.05c2-.45,3.83-.94,5.32-1.43.75-.22,1.42-.47,2-.67s1.09-.39,1.5-.55A7.51,7.51,0,0,1,180.42,297Z" style="fill:#263238"></path><path d="M170.68,226.41l2.65,32.3a2,2,0,0,1-1.81,2.18L151.6,263a2,2,0,0,1-2.22-1.77l-3.91-33.75a2,2,0,0,1,1.95-2.25l21.18-.68A2,2,0,0,1,170.68,226.41Z" style="fill:#263238"></path><path d="M161.58,243.61c.54,0,12.34,2.14,12.34,2.14l15.42,8.84,8.31,12.5-8.1,15.12L185.4,270a56.75,56.75,0,0,1-7.24-.15c-3.6-.35-15-1.22-15-1.22l-5.87-3.26s-1.89-3.08-1.89-3.94a1.34,1.34,0,0,1,2.06-1.2c1.2.69,9.42.86,11.48,0,0,0-12-.86-13.54-2.83s-1-3.5.86-3.5,8.74,1,10.79.85,4.63-.17,5.14-1.2-1-1.88-1-1.88L169,249.94s-8.74-1.54-9.26-3.42A2.19,2.19,0,0,1,161.58,243.61Z" style="fill:#ffbf9d"></path><path d="M157.57,243s-10,1.62-10.65,2.26-13.25,16.09-13.25,16.09L140.11,274l11.28-6.12a18.29,18.29,0,0,1,3.59-1.16s11.39-1.79,12.13-3.16.31-1.69-.53-1.9-7.66.56-9.18.84a22.94,22.94,0,0,1-4.53,0s4.73-1.1,5.8-1.48,11.66-2.74,11.49-4.64-1.48-2.59-8.12-.79a47.86,47.86,0,0,1-11.18,1.8l14.66-5.12s5.91-1.9,4-3.59-14.55,1.8-14.55,1.8l-5.59,2.11,1.58-3.38s7.95-2.36,9-3.15c1.26-1,1.44-1.9.49-2.71S157.57,243,157.57,243Z" style="fill:#ffbf9d"></path><path d="M110.21,268.64l17.09,1.75,2.41-3.1,4-5.94L140.11,274s-2.34,7.52-3.59,11.67c-3.36,11.13-8.83,23.58-15.55,23-8.06-.75-14-10.31-13.83-16.5C107.27,286.51,110.21,268.64,110.21,268.64Z" style="fill:#ffbf9d"></path><path d="M215.6,261.47l-14.23,3.61L197,266l-4-5.94-6.44,12.66s2.34,7.52,3.59,11.68c3.36,11.12,8.83,23.58,15.55,22.95,8.06-.75,14-10.31,13.82-16.5C219.47,285.25,215.6,261.47,215.6,261.47Z" style="fill:#ffbf9d"></path><path d="M133.67,261.35s.11-.16.34-.45l1-1.29,4-4.94,6.32-7.74.95-1.15.51-.58a2.16,2.16,0,0,1,.75-.36c1-.3,2-.52,3.13-.74,2.17-.44,4.46-.85,6.87-1.25h0a5.26,5.26,0,0,1,1.86-.09,2.51,2.51,0,0,1,.93.32,2.22,2.22,0,0,1,.69.74,1.3,1.3,0,0,1,.11,1,2.42,2.42,0,0,1-.56.86,3.31,3.31,0,0,1-.79.64,9.22,9.22,0,0,1-.91.42c-2.48,1-5.12,1.78-7.85,2.61l.11-.09-1.58,3.37-.23-.25,5.59-2.11h0c2.39-.64,4.86-1.22,7.41-1.69a38.31,38.31,0,0,1,3.91-.53,11.36,11.36,0,0,1,2,0,3.57,3.57,0,0,1,1,.24,1.37,1.37,0,0,1,.77.84,1.22,1.22,0,0,1-.34,1.1,4.36,4.36,0,0,1-.81.69,13.42,13.42,0,0,1-1.84,1c-1.28.53-2.6.93-3.9,1.4l-7.94,2.77-4.31,1.51-.07-.4a49.29,49.29,0,0,0,10.36-1.59,46.5,46.5,0,0,1,5-1.12,7.39,7.39,0,0,1,2.57,0,1.94,1.94,0,0,1,1.16.7,2.41,2.41,0,0,1,.39,1.29,1,1,0,0,1-.33.67,2.86,2.86,0,0,1-.5.42,8.38,8.38,0,0,1-1.09.61c-.75.35-1.51.63-2.27.9-1.52.53-3,1-4.54,1.37l-2.24.59c-.72.19-1.45.45-2.18.62-1.46.37-2.89.72-4.3,1.05l0-.35a19,19,0,0,0,5-.07c1.62-.24,3.21-.41,4.76-.56.77-.08,1.54-.14,2.3-.19l1.13,0a4.41,4.41,0,0,1,.6,0,2.4,2.4,0,0,1,.55.19.81.81,0,0,1,.43.49,1.11,1.11,0,0,1,0,.63,3.05,3.05,0,0,1-.2.53l-.12.24a.85.85,0,0,1-.21.25,6.26,6.26,0,0,1-2,.88,71.78,71.78,0,0,1-7.6,1.7l-1.74.3a14,14,0,0,0-1.64.33,11.83,11.83,0,0,0-2.93,1.07L143,272.49l-2.15,1.14-.56.29-.19.09s0-.05.17-.12.32-.17.55-.31L143,272.4l8.11-4.46a20.3,20.3,0,0,1,6.37-1.76,72.16,72.16,0,0,0,7.55-1.72,6.68,6.68,0,0,0,1.86-.83.75.75,0,0,0,.14-.17l.12-.23a3.12,3.12,0,0,0,.18-.48c.09-.34,0-.63-.26-.76a1.77,1.77,0,0,0-.49-.17,2.8,2.8,0,0,0-.52,0c-.36,0-.74,0-1.11,0-.76.05-1.52.12-2.29.19-1.54.16-3.13.34-4.74.58a19.21,19.21,0,0,1-5,.08.18.18,0,0,1,0-.35h0c1.4-.33,2.84-.68,4.28-1.06.74-.17,1.43-.42,2.19-.62l2.23-.6c1.49-.4,3-.84,4.51-1.36.75-.27,1.51-.55,2.23-.89a8.12,8.12,0,0,0,1-.58c.3-.22.65-.51.65-.78a2,2,0,0,0-.31-1,1.49,1.49,0,0,0-.93-.55,7.09,7.09,0,0,0-2.43,0,47.27,47.27,0,0,0-5,1.12,49.1,49.1,0,0,1-10.46,1.61.21.21,0,0,1-.21-.2.2.2,0,0,1,.14-.19h0l4.31-1.5,7.94-2.77c1.31-.48,2.63-.87,3.87-1.4a11,11,0,0,0,1.77-.92,4,4,0,0,0,.74-.61.84.84,0,0,0,.26-.74c-.17-.53-.83-.74-1.47-.79a11.55,11.55,0,0,0-1.95,0,35.45,35.45,0,0,0-3.86.52c-2.53.46-5,1-7.38,1.67h0l-5.59,2.1a.18.18,0,0,1-.24-.11.22.22,0,0,1,0-.14c.55-1.17,1.09-2.33,1.59-3.38a.17.17,0,0,1,.11-.09c2.72-.83,5.37-1.63,7.82-2.58a8.76,8.76,0,0,0,.88-.4,3,3,0,0,0,.71-.58,1.26,1.26,0,0,0,.41-1.52,1.83,1.83,0,0,0-1.39-.89,5.08,5.08,0,0,0-1.74.07h0c-2.41.4-4.7.8-6.86,1.22-1.08.22-2.13.44-3.11.73a2.05,2.05,0,0,0-.65.28l-.49.57-1,1.14-6.39,7.69-4,4.88-1.06,1.27Z" style="fill:#ff9a6c"></path><path d="M134.71,260.94c.11.09-4.6,6.39-10.52,14.08s-10.82,13.85-10.93,13.77,4.59-6.39,10.52-14.09S134.59,260.85,134.71,260.94Z" style="fill:#ff9a6c"></path><path d="M212.19,288.79c-.09,0-.68-1.43-1.91-3.65a74.23,74.23,0,0,0-5.47-8.28c-2.32-3.12-4.53-5.86-6.06-7.9-.77-1-1.37-1.86-1.77-2.45a4.57,4.57,0,0,1-.58-.95,4.4,4.4,0,0,1,.74.83l1.9,2.34c1.6,2,3.86,4.69,6.19,7.82A59.16,59.16,0,0,1,210.6,285a25.91,25.91,0,0,1,1.25,2.77A4.72,4.72,0,0,1,212.19,288.79Z" style="fill:#ff9a6c"></path><polygon points="111.39 424.8 106.57 409.31 131.55 401.99 135.69 419.31 111.39 424.8" style="fill:#ffbf9d"></polygon><path d="M134.46,417.63l5.37,25.46,5.1,7.74c1.94,2.93-.81,3.95-3.75,5.88l-35.82,23.63s-4.06-2.48-2.16-5.35,14.64-27.13,14.64-27.13l-6.45-23.13Z" style="fill:#e0e0e0"></path><path d="M135.81,415l1,6.42a2,2,0,0,1-1.44,2.16l-21.8,5.59a1.94,1.94,0,0,1-2.3-1.2l-2.18-5.92a1.93,1.93,0,0,1,1.32-2.54l23-6.09A1.93,1.93,0,0,1,135.81,415Z" style="fill:#e0e0e0"></path><path d="M112.71,429.47a20.25,20.25,0,0,0,3.46-.46c2.12-.36,5-.94,8.24-1.74s6-1.72,8.06-2.45c1-.36,1.83-.68,2.38-.91a3.15,3.15,0,0,0,.84-.42,29,29,0,0,0-3.34,1c-2,.64-4.9,1.48-8.07,2.28s-6.08,1.44-8.18,1.9A25.26,25.26,0,0,0,112.71,429.47Z" style="fill:#263238"></path><path d="M132.37,423.94a9.77,9.77,0,0,0-3-9.4,23.24,23.24,0,0,1,2.27,4.46A23.63,23.63,0,0,1,132.37,423.94Z" style="fill:#263238"></path><path d="M124.62,427a35.58,35.58,0,0,0-2.53-10.55,37.73,37.73,0,0,0,1.15,5.3A40.21,40.21,0,0,0,124.62,427Z" style="fill:#263238"></path><path d="M115.67,428.35a13.12,13.12,0,0,1-.71-10.06,3.37,3.37,0,0,0-.71,1.39,9.73,9.73,0,0,0-.47,3.75,9.85,9.85,0,0,0,1,3.64A3.29,3.29,0,0,0,115.67,428.35Z" style="fill:#263238"></path><path d="M138.45,458.21c.08,0-.3-.77-.64-2a11.53,11.53,0,0,1,1.67-9.73c.74-1.08,1.34-1.64,1.28-1.71a5.2,5.2,0,0,0-1.59,1.49,10.67,10.67,0,0,0-1.72,10.06A5.06,5.06,0,0,0,138.45,458.21Z" style="fill:#263238"></path><path d="M115.94,473.37a3.45,3.45,0,0,0-.53-1.54,7,7,0,0,0-2.77-2.77,9.63,9.63,0,0,0-3.77-1.07,3.8,3.8,0,0,0-1.61.07,7,7,0,0,0,1.57.31,11.56,11.56,0,0,1,3.55,1.16,7.64,7.64,0,0,1,2.71,2.5C115.61,472.83,115.85,473.4,115.94,473.37Z" style="fill:#263238"></path><path d="M159.7,334s-43.14-18.9-51.87-19.57c-13.6-1-21.94,4.7-21.36,23.58s17.81,83,17.81,83l33.54-5.22s-2.48-22.89-6.29-40.44c-3.3-15.23-1.78-12.84-1.78-12.84h0l41.36-.81Z" style="fill:#263238"></path><path d="M121.34,330a7.32,7.32,0,0,1,.77,1.14,14.76,14.76,0,0,1,.8,1.41l.46.9c.15.32.3.67.46,1a54.49,54.49,0,0,1,3.38,11.91c.87,4.76,1.37,9.1,1.78,12.24.19,1.51.35,2.76.47,3.71a8.59,8.59,0,0,1,.13,1.38,8.84,8.84,0,0,1-.29-1.35c-.16-.87-.37-2.14-.61-3.7-.49-3.13-1-7.46-1.9-12.21a60.27,60.27,0,0,0-3.24-11.86l-.43-1-.43-.91c-.27-.56-.49-1.05-.72-1.43A9.46,9.46,0,0,1,121.34,330Z" style="fill:#455a64"></path><path d="M250.29,302.3c-11.84-8.39-32.07-2.7-35.67,0s-27.27,19.93-27.87,20.38-66.62-1.88-66.62-1.88l55.39,45.93c17.55-.24,22-2.6,29.23-6.46,0,0,14.35-8,16.27-8.81,1.49-.64,28.67-14.1,31.51-19S262.12,310.69,250.29,302.3Z" style="fill:#263238"></path><path d="M179.26,344l-20.19,16-8.78,2.66c-3.33,1-1.88,3.52-.87,6.86l12.32,40.64s4.66.68,5-2.7,6-29.92,6-29.92L192.33,364Z" style="fill:#e0e0e0"></path><path d="M179.26,344s.08.1.23.32l.67,1,2.61,3.92c2.28,3.46,5.58,8.45,9.69,14.66l.08.13-.13.08-19.52,13.56.08-.12-3.58,17.24c-.62,3-1.25,6.13-1.84,9.3-.15.79-.29,1.59-.43,2.39-.06.4-.1.78-.18,1.21a2.38,2.38,0,0,1-.18.63l-.13.3-.18.28a3.6,3.6,0,0,1-2.19,1.34,8.08,8.08,0,0,1-2.55.11l-.14,0,0-.14c0-.13-.08-.27-.13-.42-3.34-11-6.53-21.58-9.43-31.18q-1.09-3.6-2.12-7c-.35-1.13-.67-2.26-1-3.35a11.09,11.09,0,0,1-.77-3.37,2.19,2.19,0,0,1,.7-1.6,4.3,4.3,0,0,1,1.51-.79l3-.91,5.73-1.73-.05,0,14.86-11.66,4-3.14,1-.8.36-.26-.36.3-1.05.85-4,3.22-14.68,11.73,0,0h0l-5.72,1.75-3,.93a3.69,3.69,0,0,0-1.36.71,1.84,1.84,0,0,0-.59,1.36,10.77,10.77,0,0,0,.77,3.23c.37,1.1.7,2.23,1.05,3.36q1,3.42,2.13,7c2.92,9.6,6.11,20.13,9.47,31.18,0,.14.09.29.13.42l-.18-.15a7.37,7.37,0,0,0,2.39-.11,3.09,3.09,0,0,0,1.93-1.16,5.27,5.27,0,0,0,.61-2.24c.13-.81.27-1.61.43-2.4.59-3.17,1.23-6.27,1.84-9.31,1.27-6.05,2.49-11.83,3.62-17.23v-.08l.07,0,19.57-13.49,0,.21-9.49-14.68c-1.11-1.72-2-3.06-2.56-4l-.67-1C179.33,344.08,179.26,344,179.26,344Z" style="fill:#263238"></path><path d="M179.86,341.12l-4.79,4.27a1.94,1.94,0,0,0-.28,2.56l13.07,18a1.91,1.91,0,0,0,2.51.54l5.4-3.12a1.91,1.91,0,0,0,.6-2.77l-13.67-19.2A1.92,1.92,0,0,0,179.86,341.12Z" style="fill:#e0e0e0"></path><path d="M188.32,366.72a21.41,21.41,0,0,1-2.34-2.54c-1.39-1.62-3.25-3.91-5.17-6.54s-3.51-5.12-4.59-7c-.54-.92-1-1.67-1.23-2.2a3.15,3.15,0,0,1-.38-.85,26,26,0,0,1,1.93,2.86c1.15,1.78,2.79,4.22,4.7,6.84s3.71,4.94,5,6.62A23.66,23.66,0,0,1,188.32,366.72Z" style="fill:#263238"></path><path d="M176.85,350.07a8.21,8.21,0,0,1,3.4-3.74,8.12,8.12,0,0,1,4.83-1.53,15.42,15.42,0,0,0-8.23,5.27Z" style="fill:#263238"></path><path d="M180.81,357.31a21.3,21.3,0,0,1,4.06-3.54,22.18,22.18,0,0,1,4.54-2.89,38,38,0,0,1-4.23,3.31A39.46,39.46,0,0,1,180.81,357.31Z" style="fill:#263238"></path><path d="M186.78,364a17.66,17.66,0,0,0,4.17-2.91,17.34,17.34,0,0,0,2.73-4.3,3.26,3.26,0,0,1-.34,1.51,9.49,9.49,0,0,1-2,3.15,9.79,9.79,0,0,1-3.06,2.15A3.16,3.16,0,0,1,186.78,364Z" style="fill:#263238"></path><path d="M150.55,372.31c0-.08.72-.4,1.78-1.14a11.46,11.46,0,0,0,4.88-8.46c.12-1.3,0-2.11.1-2.12a4.94,4.94,0,0,1,.27,2.14,10.55,10.55,0,0,1-5.05,8.75A4.85,4.85,0,0,1,150.55,372.31Z" style="fill:#263238"></path><path d="M158.1,398.09a3.39,3.39,0,0,1,1.37-.83,6.9,6.9,0,0,1,3.86-.36,9.43,9.43,0,0,1,3.54,1.57c.81.58,1.23,1,1.19,1.07a6.85,6.85,0,0,1-1.38-.76,11.74,11.74,0,0,0-3.45-1.36,7.48,7.48,0,0,0-3.64.19A8.61,8.61,0,0,1,158.1,398.09Z" style="fill:#263238"></path><path d="M225.73,304.34s-.19,0-.56,0a13.39,13.39,0,0,0-1.56.38c-1.35.38-3.28,1-5.65,1.88-1.17.42-2.51.89-3.88,1.31a14.51,14.51,0,0,0-3.59,2.93c-2.4,2.3-5,4.84-7.74,7.55-5.45,5.4-10.24,10.44-13.59,14.18-1.68,1.86-3,3.4-3.94,4.46-.43.51-.79.92-1.06,1.23a2.46,2.46,0,0,1-.39.41,3.48,3.48,0,0,1,.33-.46l1-1.28c.89-1.09,2.19-2.66,3.84-4.55,3.31-3.8,8.07-8.87,13.52-14.28,2.72-2.71,5.35-5.25,7.76-7.54a15,15,0,0,1,3.73-3c1.45-.44,2.72-.87,3.92-1.28,2.38-.8,4.33-1.41,5.7-1.76a10.66,10.66,0,0,1,1.59-.3,1.44,1.44,0,0,1,.43,0C225.69,304.32,225.73,304.33,225.73,304.34Z" style="fill:#455a64"></path><path d="M160.39,349.51a7.21,7.21,0,0,1-.55-1.28c-.16-.42-.36-.92-.63-1.5s-.54-1.24-.93-1.94-.77-1.49-1.27-2.28-1-1.64-1.63-2.51a41.06,41.06,0,0,0-4.44-5.21,42,42,0,0,0-5.29-4.35c-.89-.57-1.71-1.13-2.54-1.58s-1.59-.87-2.3-1.22-1.38-.64-2-.89a16,16,0,0,0-1.52-.61,9.19,9.19,0,0,1-1.29-.52,7.78,7.78,0,0,1,1.35.37,12.64,12.64,0,0,1,1.54.54,21.15,21.15,0,0,1,2,.83c.73.34,1.52.72,2.34,1.19s1.69,1,2.59,1.57a40.31,40.31,0,0,1,5.37,4.36,40.82,40.82,0,0,1,4.46,5.29c.59.89,1.17,1.73,1.62,2.56s.88,1.6,1.23,2.32.63,1.4.87,2a13.45,13.45,0,0,1,.57,1.54A10.91,10.91,0,0,1,160.39,349.51Z" style="fill:#455a64"></path></g></svg>